<svg width="21" height="20" viewBox="0 0 21 20" fill="none" xmlns="http://www.w3.org/2000/svg">
<path d="M11.37 0.093955C8.97724 -0.23519 6.54622 0.312507 4.5258 1.63591C2.50538 2.95932 1.03202 4.96906 0.377773 7.29402C-0.276473 9.61899 -0.0674181 12.1022 0.966337 14.285C2.00009 16.4679 3.78873 18.203 6.00197 19.17C5.94212 18.4018 5.99706 17.629 6.16497 16.877C6.34997 16.038 7.46097 11.414 7.46097 11.414C7.23974 10.9181 7.12918 10.3799 7.13697 9.83696C7.13697 8.35196 7.99397 7.24396 9.05997 7.24396C9.25148 7.24117 9.44134 7.27965 9.61665 7.35679C9.79195 7.43392 9.9486 7.5479 10.0759 7.69098C10.2032 7.83405 10.2983 8.00287 10.3545 8.18595C10.4108 8.36902 10.427 8.56207 10.402 8.75196C10.402 9.65195 9.82397 11.014 9.52197 12.292C9.46229 12.5263 9.4585 12.7715 9.51092 13.0076C9.56333 13.2437 9.67048 13.4642 9.82373 13.6513C9.97698 13.8384 10.172 13.9869 10.3932 14.0848C10.6144 14.1827 10.8554 14.2273 11.097 14.215C12.995 14.215 14.267 11.784 14.267 8.91395C14.267 6.71395 12.81 5.06595 10.124 5.06595C9.48135 5.04098 8.84035 5.14688 8.23991 5.37721C7.63946 5.60754 7.09209 5.9575 6.63102 6.40584C6.16996 6.85419 5.80483 7.39156 5.5578 7.98533C5.31076 8.5791 5.18698 9.21688 5.19397 9.85995C5.16534 10.5733 5.39548 11.2729 5.84197 11.83C5.92541 11.8922 5.98633 11.98 6.01555 12.0799C6.04477 12.1798 6.04071 12.2865 6.00397 12.384C5.95797 12.568 5.84197 13.007 5.79597 13.168C5.7864 13.2226 5.76415 13.2741 5.731 13.3186C5.69784 13.363 5.65472 13.399 5.6051 13.4237C5.55549 13.4484 5.50076 13.4611 5.44533 13.4608C5.3899 13.4605 5.33531 13.4472 5.28597 13.422C3.90197 12.868 3.24997 11.345 3.24997 9.60596C3.24997 6.75896 5.63397 3.35095 10.404 3.35095C14.2 3.35095 16.724 6.12795 16.724 9.09795C16.724 13.007 14.547 15.946 11.33 15.946C10.8492 15.9613 10.3722 15.8552 9.94331 15.6374C9.51437 15.4196 9.14728 15.0972 8.87597 14.7C8.87597 14.7 8.29797 17.016 8.18397 17.454C7.95127 18.2107 7.60788 18.9288 7.16497 19.585C8.08797 19.865 9.04697 20.005 10.011 20.001C11.3246 20.002 12.6254 19.7439 13.8391 19.2415C15.0528 18.7391 16.1555 18.0022 17.084 17.0731C18.0126 16.1439 18.7487 15.0407 19.2502 13.8267C19.7518 12.6126 20.0089 11.3115 20.007 9.99796C20.0057 7.58295 19.1308 5.24995 17.5436 3.42973C15.9564 1.60952 13.7643 0.425019 11.372 0.0949549L11.37 0.093955Z" fill="#919CAB"/>
</svg>
